<svg width="31" height="31" fill="none" xmlns="http://www.w3.org/2000/svg"><g clip-path="url(#a)" fill="#fff"><path d="M20.014 6.414h-9.027a4.578 4.578 0 0 0-4.572 4.572v9.027a4.578 4.578 0 0 0 4.572 4.572h9.027a4.578 4.578 0 0 0 4.572-4.573v-9.026a4.578 4.578 0 0 0-4.573-4.573Zm3.504 13.6a3.508 3.508 0 0 1-3.504 3.503h-9.027a3.508 3.508 0 0 1-3.504-3.504v-9.026a3.508 3.508 0 0 1 3.504-3.504h9.027a3.508 3.508 0 0 1 3.504 3.504v9.026Z"/><path d="M15.5 11.1a4.405 4.405 0 0 0-4.4 4.4c0 2.427 1.974 4.4 4.4 4.4s4.4-1.973 4.4-4.4c0-2.426-1.974-4.4-4.4-4.4Zm0 7.732a3.335 3.335 0 0 1-3.332-3.332A3.335 3.335 0 0 1 15.5 12.17a3.335 3.335 0 0 1 3.332 3.332 3.335 3.335 0 0 1-3.332 3.331ZM20.542 8.83c-.877 0-1.59.714-1.59 1.59 0 .877.713 1.59 1.59 1.59.877 0 1.59-.713 1.59-1.59 0-.876-.713-1.59-1.59-1.59Zm0 2.112a.522.522 0 1 1 0-1.045.522.522 0 0 1 0 1.045Z"/><path d="M15.5 0C6.954 0 0 6.954 0 15.5S6.954 31 15.5 31 31 24.046 31 15.5 24.046 0 15.5 0Zm0 29.93c-7.958 0-14.431-6.473-14.431-14.43 0-7.958 6.474-14.431 14.43-14.431 7.957 0 14.432 6.473 14.432 14.43 0 7.958-6.474 14.432-14.431 14.432Z"/></g><defs><clipPath id="a"><path fill="#fff" d="M0 0h31v31H0z"/></clipPath></defs></svg>