<svg xmlns="http://www.w3.org/2000/svg" width="99" height="68" fill="none"><path fill="#E88627" d="M60.547 2.48 69.3 52.12c.25 1.415-.58 2.744-1.852 2.969-.47.083-.957.003-1.397-.227a81.444 81.444 0 0 0-.69-.357l-9.33-52.92c.177-.191.352-.382.525-.571a2.186 2.186 0 0 1 1.235-.691c1.273-.225 2.507.741 2.756 2.157ZM30.34 46.89a87.41 87.41 0 0 0-9.7-.051l2.093 17.73a2.93 2.93 0 0 0 3.415 2.55l5.554-.98a2.931 2.931 0 0 0 2.337-3.563L30.341 46.89ZM.722 32.15 2.935 44.7a2.858 2.858 0 0 0 3.307 2.324l8.396-1.48-3.207-18.19-8.396 1.48A2.858 2.858 0 0 0 .722 32.15Zm12.707-5.148 3.207 18.189c7.475-.699 19.202-.847 32.721 3.005a87.978 87.978 0 0 1 13.65 5.147l-8.792-49.86a87.952 87.952 0 0 1-11.066 9.504c-11.387 8.243-22.457 12.115-29.72 14.015Zm51.98-8.021 2.816 15.969a9.08 9.08 0 0 0 3.494-8.85 9.079 9.079 0 0 0-6.31-7.12Zm30.949.903-19.285 3.4a1.83 1.83 0 0 0-1.481 2.123 1.83 1.83 0 0 0 2.118 1.488l19.284-3.4a1.83 1.83 0 0 0 1.481-2.123 1.83 1.83 0 0 0-2.117-1.488Zm-22.98-1.656c.328-.058.645-.207.91-.45L88.766 4.566c.746-.68.8-1.84.12-2.589a1.823 1.823 0 0 0-2.581-.123L71.827 15.066c-.746.681-.8 1.84-.12 2.59a1.824 1.824 0 0 0 1.67.572Zm21.721 22.258L76.976 33.02a1.824 1.824 0 0 0-2.384.999 1.837 1.837 0 0 0 .999 2.392l18.123 7.465a1.824 1.824 0 0 0 2.384-.999 1.837 1.837 0 0 0-.998-2.392Z"/></svg>