<svg xmlns="http://www.w3.org/2000/svg" width="667" height="38" fill="none"><path fill="#E88627" d="M0 1h667v35H0z"/><path fill="#fff" d="m171.737 28.06 5.56-5.66c.267-.293.487-.553.66-.78.173-.24.293-.46.36-.66.08-.213.12-.433.12-.66 0-.507-.167-.907-.5-1.2-.32-.293-.747-.44-1.28-.44-.507 0-.967.147-1.38.44-.413.28-.84.753-1.28 1.42l-2.34-2.08c.573-.933 1.307-1.64 2.2-2.12.893-.493 1.92-.74 3.08-.74 1.027 0 1.913.187 2.66.56.747.373 1.32.907 1.72 1.6.413.68.62 1.487.62 2.42 0 .56-.073 1.08-.22 1.56a5.3 5.3 0 0 1-.7 1.4c-.32.453-.747.933-1.28 1.44l-3.68 3.58-4.32-.08Zm0 1.94v-1.94l2.98-1.04h7.52V30h-10.5Zm17.823.22c-1.186 0-2.246-.307-3.18-.92-.933-.627-1.673-1.493-2.22-2.6-.533-1.107-.8-2.38-.8-3.82 0-1.427.267-2.687.8-3.78.534-1.107 1.26-1.967 2.18-2.58.934-.627 1.987-.94 3.16-.94 1.2 0 2.267.313 3.2.94.934.613 1.667 1.473 2.2 2.58.534 1.093.8 2.367.8 3.82 0 1.44-.266 2.713-.8 3.82-.533 1.093-1.266 1.947-2.2 2.56-.92.613-1.966.92-3.14.92Zm-.04-3.08c.547 0 1.014-.16 1.4-.48.387-.333.68-.813.88-1.44.214-.627.32-1.4.32-2.32 0-.907-.106-1.673-.32-2.3-.2-.627-.493-1.1-.88-1.42-.386-.333-.86-.5-1.42-.5-.52 0-.973.16-1.36.48-.386.32-.686.793-.9 1.42-.2.627-.3 1.393-.3 2.3 0 .92.1 1.7.3 2.34.214.627.514 1.107.9 1.44.387.32.847.48 1.38.48Zm7.158.92 5.56-5.66c.267-.293.487-.553.66-.78.174-.24.294-.46.36-.66.08-.213.12-.433.12-.66 0-.507-.166-.907-.5-1.2-.32-.293-.746-.44-1.28-.44-.506 0-.966.147-1.38.44-.413.28-.84.753-1.28 1.42l-2.34-2.08c.574-.933 1.307-1.64 2.2-2.12.894-.493 1.92-.74 3.08-.74 1.027 0 1.914.187 2.66.56.747.373 1.32.907 1.72 1.6.414.68.62 1.487.62 2.42 0 .56-.073 1.08-.22 1.56a5.27 5.27 0 0 1-.7 1.4c-.32.453-.746.933-1.28 1.44l-3.68 3.58-4.32-.08Zm0 1.94v-1.94l2.98-1.04h7.52V30h-10.5Zm11.444-4.86 4.44-9.32h3.84l-4.56 9.32h-3.72Zm0 1.96v-1.96l1.04-1.02h10.48v2.98h-11.52Zm6.66 2.9v-8.54h3.5V30h-3.5Zm9.835.33c-.88 0-1.6-.29-2.16-.87-.56-.58-.84-1.3-.84-2.16 0-.86.28-1.58.84-2.16.56-.58 1.28-.87 2.16-.87.86 0 1.57.29 2.13.87.56.58.84 1.3.84 2.16 0 .86-.28 1.58-.84 2.16-.56.58-1.27.87-2.13.87Zm7.03-.33V8.73h5.31V30h-5.31Zm-4.05-16.8V8.73h9.06v4.47h-9.06Zm15.8 17.13c-.88 0-1.6-.29-2.16-.87-.56-.58-.84-1.3-.84-2.16 0-.86.28-1.58.84-2.16.56-.58 1.28-.87 2.16-.87.86 0 1.57.29 2.13.87.56.58.84 1.3.84 2.16 0 .86-.28 1.58-.84 2.16-.56.58-1.27.87-2.13.87Zm12.201 0c-1.5 0-2.88-.25-4.14-.75-1.26-.52-2.33-1.25-3.21-2.19l3.42-3.36c.36.52.89.95 1.59 1.29.72.32 1.47.48 2.25.48.66 0 1.24-.11 1.74-.33.52-.24.92-.57 1.2-.99.3-.44.45-.96.45-1.56 0-.6-.15-1.11-.45-1.53-.3-.44-.73-.77-1.29-.99-.54-.22-1.19-.33-1.95-.33-.4 0-.82.03-1.26.09-.42.04-.76.11-1.02.21l2.34-2.94c.64-.16 1.22-.29 1.74-.39.54-.12 1.02-.18 1.44-.18 1.08 0 2.05.26 2.91.78.86.5 1.54 1.22 2.04 2.16.5.92.75 2.01.75 3.27 0 1.44-.35 2.71-1.05 3.81-.7 1.08-1.7 1.93-3 2.55-1.28.6-2.78.9-4.5.9Zm-2.67-9.96v-2.94l4.95-5.79h5.82l-5.1 5.79-5.67 2.94Zm-3.21-7.17V8.73h13.98v2.91l-4.05 1.56h-9.93Zm25.39 17.13c-1.78 0-3.37-.46-4.77-1.38-1.4-.94-2.51-2.24-3.33-3.9-.8-1.66-1.2-3.57-1.2-5.73 0-2.14.4-4.03 1.2-5.67.8-1.66 1.89-2.95 3.27-3.87 1.4-.94 2.98-1.41 4.74-1.41 1.8 0 3.4.47 4.8 1.41 1.4.92 2.5 2.21 3.3 3.87.8 1.64 1.2 3.55 1.2 5.73 0 2.16-.4 4.07-1.2 5.73-.8 1.64-1.9 2.92-3.3 3.84-1.38.92-2.95 1.38-4.71 1.38Zm-.06-4.62c.82 0 1.52-.24 2.1-.72.58-.5 1.02-1.22 1.32-2.16.32-.94.48-2.1.48-3.48 0-1.36-.16-2.51-.48-3.45-.3-.94-.74-1.65-1.32-2.13-.58-.5-1.29-.75-2.13-.75-.78 0-1.46.24-2.04.72-.58.48-1.03 1.19-1.35 2.13-.3.94-.45 2.09-.45 3.45 0 1.38.15 2.55.45 3.51.32.94.77 1.66 1.35 2.16.58.48 1.27.72 2.07.72Zm11.602 6.69V11.775h3.475V32.4h-3.475Zm1.725 0v-3.125h4.775V32.4h-4.775Zm0-17.525v-3.1h4.775v3.1h-4.775Zm9.964-1.15 3.025.675a25.452 25.452 0 0 1-.575 3.025c-.233.983-.567 1.9-1 2.75a6.96 6.96 0 0 1-1.725 2.15l-2.725-1.7a6.316 6.316 0 0 0 1.5-1.825c.4-.717.717-1.5.95-2.35.25-.867.433-1.775.55-2.725Zm15.35-.025 3.325 1.25c-.433.8-.883 1.625-1.35 2.475a76.671 76.671 0 0 1-1.4 2.4c-.45.75-.892 1.408-1.325 1.975l-2.575-1.15c.383-.617.783-1.325 1.2-2.125.433-.8.833-1.617 1.2-2.45.367-.85.675-1.642.925-2.375Zm-7.4-4.6h1.625v7.85c0 .617.067 1.292.2 2.025.15.733.383 1.483.7 2.25.317.767.733 1.533 1.25 2.3a14.687 14.687 0 0 0 1.925 2.225c.75.717 1.625 1.392 2.625 2.025 1.017.617 2.175 1.167 3.475 1.65a7.746 7.746 0 0 0-.75.825c-.267.333-.525.675-.775 1.025-.233.35-.425.667-.575.95a16.679 16.679 0 0 1-3.25-1.725 19.517 19.517 0 0 1-2.575-2.1c-.733-.75-1.367-1.5-1.9-2.25a16.249 16.249 0 0 1-1.3-2.125c-.317-.667-.55-1.25-.7-1.75-.117.517-.333 1.108-.65 1.775-.3.667-.708 1.375-1.225 2.125-.5.733-1.108 1.467-1.825 2.2-.7.733-1.525 1.433-2.475 2.1a16.726 16.726 0 0 1-3.15 1.75 6.917 6.917 0 0 0-.575-.825 20.37 20.37 0 0 0-.8-.95 11.408 11.408 0 0 0-.75-.775c1.517-.567 2.825-1.25 3.925-2.05 1.117-.817 2.05-1.683 2.8-2.6a13.7 13.7 0 0 0 1.8-2.8c.467-.967.8-1.892 1-2.775.217-.9.325-1.733.325-2.5V9.1h1.625Zm16.45 23.3V11.775h3.45V32.4h-3.45Zm-3.05 0v-3.125h4.775V32.4h-4.775Zm0-17.525v-3.1h4.775v3.1h-4.775ZM345 11l-3 3 5 5-5 5 3 3 8-8-8-8ZM361 11l-3 3 5 5-5 5 3 3 8-8-8-8ZM377 11l-3 3 5 5-5 5 3 3 8-8-8-8ZM400.152 27.09l8.34-8.49c.4-.44.73-.83.99-1.17.26-.36.44-.69.54-.99.12-.32.18-.65.18-.99 0-.76-.25-1.36-.75-1.8-.48-.44-1.12-.66-1.92-.66-.76 0-1.45.22-2.07.66-.62.42-1.26 1.13-1.92 2.13l-3.51-3.12c.86-1.4 1.96-2.46 3.3-3.18 1.34-.74 2.88-1.11 4.62-1.11 1.54 0 2.87.28 3.99.84 1.12.56 1.98 1.36 2.58 2.4.62 1.02.93 2.23.93 3.63 0 .84-.11 1.62-.33 2.34-.22.7-.57 1.4-1.05 2.1-.48.68-1.12 1.4-1.92 2.16l-5.52 5.37-6.48-.12Zm0 2.91v-2.91l4.47-1.56h11.28V30h-15.75Zm21.215.33c-.88 0-1.6-.29-2.16-.87-.56-.58-.84-1.3-.84-2.16 0-.86.28-1.58.84-2.16.56-.58 1.28-.87 2.16-.87.86 0 1.57.29 2.13.87.56.58.84 1.3.84 2.16 0 .86-.28 1.58-.84 2.16-.56.58-1.27.87-2.13.87Zm7.03-.33V8.73h5.31V30h-5.31Zm-4.05-16.8V8.73h9.06v4.47h-9.06Zm14.06 16.8 6.93-9.57 1.98.15c-.3.5-.61.93-.93 1.29-.3.34-.68.61-1.14.81-.46.2-1.07.3-1.83.3-1.34 0-2.56-.31-3.66-.93a7.496 7.496 0 0 1-2.61-2.58c-.66-1.08-.99-2.29-.99-3.63 0-1.4.36-2.66 1.08-3.78a7.72 7.72 0 0 1 2.91-2.7c1.22-.66 2.58-.99 4.08-.99 1.54 0 2.91.33 4.11.99 1.22.66 2.18 1.55 2.88 2.67.72 1.12 1.08 2.38 1.08 3.78 0 1.74-.6 3.5-1.8 5.28l-6.09 8.91h-6Zm5.82-10.98c.58 0 1.09-.13 1.53-.39.44-.26.78-.62 1.02-1.08.26-.46.39-.98.39-1.56 0-.6-.13-1.13-.39-1.59-.24-.46-.58-.82-1.02-1.08-.44-.26-.95-.39-1.53-.39-.56 0-1.06.13-1.5.39-.44.26-.79.62-1.05 1.08-.24.46-.36.99-.36 1.59 0 .58.12 1.1.36 1.56.26.46.61.82 1.05 1.08.44.26.94.39 1.5.39Zm10.228 13.38V11.775h3.475V32.4h-3.475Zm1.725 0v-3.125h4.775V32.4h-4.775Zm0-17.525v-3.1h4.775v3.1h-4.775Zm12.289-4.925h12.475v2.925h-12.475V9.95Zm.025 5.975h12.575v2.85h-12.575v-2.85Zm-.15 5.9h12.55v2.925h-12.55v-2.925Zm-1.95-11.875h3.1v8.275c0 1.083-.067 2.25-.2 3.5a24.039 24.039 0 0 1-.675 3.8 15.129 15.129 0 0 1-1.475 3.65 11.272 11.272 0 0 1-2.575 3.075 5.72 5.72 0 0 0-.65-.75 10.557 10.557 0 0 0-.875-.825 4.973 4.973 0 0 0-.8-.6c.95-.8 1.7-1.683 2.25-2.65.566-.983.983-2 1.25-3.05.283-1.05.458-2.1.525-3.15.083-1.05.125-2.058.125-3.025V9.95Zm13.15 0h3.2v18.475c0 .9-.125 1.592-.375 2.075-.234.483-.642.85-1.225 1.1-.6.267-1.35.425-2.25.475-.9.067-2 .1-3.3.1a9.48 9.48 0 0 0-.3-1.025 17.063 17.063 0 0 0-.45-1.15 7.62 7.62 0 0 0-.5-.975c.583.033 1.175.058 1.775.075h2.65c.283 0 .483-.05.6-.15.116-.117.175-.308.175-.575V9.95Zm11 22.45V11.775h3.45V32.4h-3.45Zm-3.05 0v-3.125h4.775V32.4h-4.775Zm0-17.525v-3.1h4.775v3.1h-4.775Z"/></svg>