<svg xmlns="http://www.w3.org/2000/svg" width="267" height="35" fill="none"><path fill="#E88627" d="M0 0h267v35H0z"/><path fill="#fff" d="m22.787 25.448 4.448-4.528c.213-.235.39-.443.528-.624.139-.192.235-.368.288-.528.064-.17.096-.347.096-.528 0-.405-.133-.725-.4-.96-.256-.235-.597-.352-1.024-.352-.405 0-.773.117-1.104.352-.33.224-.672.603-1.024 1.136l-1.872-1.664c.459-.747 1.045-1.312 1.76-1.696.715-.395 1.536-.592 2.464-.592.821 0 1.53.15 2.128.448a3.199 3.199 0 0 1 1.376 1.28c.33.544.496 1.19.496 1.936 0 .448-.059.864-.176 1.248a4.234 4.234 0 0 1-.56 1.12 7.961 7.961 0 0 1-1.024 1.152l-2.944 2.864-3.456-.064Zm0 1.552v-1.552l2.384-.832h6.016V27h-8.4Zm14.259.176c-.95 0-1.797-.245-2.544-.736-.747-.501-1.339-1.195-1.776-2.08-.427-.885-.64-1.904-.64-3.056 0-1.141.213-2.15.64-3.024.427-.885 1.008-1.573 1.744-2.064.747-.501 1.59-.752 2.528-.752.96 0 1.813.25 2.56.752.746.49 1.333 1.179 1.76 2.064.427.875.64 1.893.64 3.056 0 1.152-.213 2.17-.64 3.056-.427.875-1.014 1.557-1.76 2.048-.736.49-1.574.736-2.512.736Zm-.032-2.464c.437 0 .81-.128 1.12-.384.31-.267.544-.65.704-1.152.17-.501.256-1.12.256-1.856 0-.725-.086-1.339-.256-1.84-.16-.501-.395-.88-.704-1.136-.31-.267-.688-.4-1.136-.4-.416 0-.779.128-1.088.384-.31.256-.55.635-.72 1.136-.16.501-.24 1.115-.24 1.84 0 .736.08 1.36.24 1.872.17.501.41.885.72 1.152.31.256.677.384 1.104.384Zm5.726.736 4.448-4.528c.213-.235.39-.443.528-.624.139-.192.235-.368.288-.528.064-.17.096-.347.096-.528 0-.405-.133-.725-.4-.96-.256-.235-.597-.352-1.024-.352-.405 0-.773.117-1.104.352-.33.224-.672.603-1.024 1.136l-1.872-1.664c.459-.747 1.045-1.312 1.76-1.696.715-.395 1.536-.592 2.464-.592.822 0 1.53.15 2.128.448a3.199 3.199 0 0 1 1.376 1.28c.33.544.496 1.19.496 1.936 0 .448-.058.864-.176 1.248a4.23 4.23 0 0 1-.56 1.12 7.955 7.955 0 0 1-1.024 1.152l-2.944 2.864-3.456-.064Zm0 1.552v-1.552l2.384-.832h6.016V27h-8.4Zm9.155-3.888 3.552-7.456h3.072l-3.648 7.456h-2.976Zm0 1.568v-1.568l.832-.816h8.384v2.384h-9.216ZM57.223 27v-6.832h2.8V27h-2.8Zm7.256.22c-.586 0-1.066-.193-1.44-.58-.373-.387-.56-.867-.56-1.44s.187-1.053.56-1.44c.374-.387.854-.58 1.44-.58.574 0 1.047.193 1.42.58.374.387.56.867.56 1.44s-.186 1.053-.56 1.44c-.373.387-.846.58-1.42.58Zm6.79-.22V9.275h4.425V27h-4.425Zm-3.375-14V9.275h7.55V13h-7.55Zm12.4 14.22c-.586 0-1.066-.193-1.44-.58-.373-.387-.56-.867-.56-1.44s.188-1.053.56-1.44c.374-.387.854-.58 1.44-.58.574 0 1.047.193 1.42.58.374.387.56.867.56 1.44s-.186 1.053-.56 1.44c-.373.387-.846.58-1.42.58Zm9.415.055c-1.25 0-2.4-.208-3.45-.625a7.561 7.561 0 0 1-2.675-1.825l2.85-2.8c.3.433.742.792 1.325 1.075.6.267 1.225.4 1.875.4.55 0 1.033-.092 1.45-.275.433-.2.767-.475 1-.825.25-.367.375-.8.375-1.3s-.125-.925-.375-1.275c-.25-.367-.608-.642-1.075-.825-.45-.183-.992-.275-1.625-.275-.333 0-.683.025-1.05.075-.35.033-.633.092-.85.175l1.95-2.45a27.245 27.245 0 0 1 1.45-.325c.45-.1.85-.15 1.2-.15.9 0 1.708.217 2.425.65.717.417 1.283 1.017 1.7 1.8.417.767.625 1.675.625 2.725 0 1.2-.292 2.258-.875 3.175-.583.9-1.417 1.608-2.5 2.125-1.067.5-2.317.75-3.75.75Zm-2.225-8.3v-2.45L91.61 11.7h4.85l-4.25 4.825-4.725 2.45ZM84.81 13V9.275h11.65V11.7L93.084 13H84.81Zm21.158 14.275c-1.483 0-2.808-.383-3.975-1.15-1.166-.783-2.091-1.867-2.775-3.25-.666-1.383-1-2.975-1-4.775 0-1.783.334-3.358 1-4.725.667-1.383 1.575-2.458 2.725-3.225 1.167-.783 2.484-1.175 3.95-1.175 1.5 0 2.834.392 4 1.175 1.167.767 2.084 1.842 2.75 3.225.667 1.367 1 2.958 1 4.775 0 1.8-.333 3.392-1 4.775-.666 1.367-1.583 2.433-2.75 3.2-1.15.767-2.458 1.15-3.925 1.15Zm-.05-3.85c.684 0 1.267-.2 1.75-.6.484-.417.85-1.017 1.1-1.8.267-.783.4-1.75.4-2.9 0-1.133-.133-2.092-.4-2.875-.25-.783-.616-1.375-1.1-1.775-.483-.417-1.075-.625-1.775-.625-.65 0-1.216.2-1.7.6-.483.4-.858.992-1.125 1.775-.25.783-.375 1.742-.375 2.875 0 1.15.125 2.125.375 2.925.267.783.642 1.383 1.125 1.8.484.4 1.059.6 1.725.6Zm9.374 5.111v-13.2h2.224v13.2h-2.224Zm1.104 0v-2h3.056v2h-3.056Zm0-11.216v-1.984h3.056v1.984h-3.056Zm6.377-.736 1.936.432a16.265 16.265 0 0 1-.368 1.936 7.85 7.85 0 0 1-.64 1.76 4.451 4.451 0 0 1-1.104 1.376L120.852 21c.395-.33.715-.72.96-1.168a6.71 6.71 0 0 0 .608-1.504c.16-.555.277-1.136.352-1.744Zm9.824-.016 2.128.8c-.277.512-.565 1.04-.864 1.584a49.097 49.097 0 0 1-.896 1.536c-.288.48-.571.901-.848 1.264l-1.648-.736c.245-.395.501-.848.768-1.36.277-.512.533-1.035.768-1.568.235-.544.432-1.05.592-1.52Zm-4.736-2.944h1.04v5.024c0 .395.043.827.128 1.296.096.47.245.95.448 1.44s.469.981.8 1.472c.341.49.752.965 1.232 1.424.48.459 1.04.89 1.68 1.296.651.395 1.392.747 2.224 1.056a4.986 4.986 0 0 0-.48.528c-.171.213-.336.432-.496.656a7.219 7.219 0 0 0-.368.608 10.677 10.677 0 0 1-2.08-1.104 12.485 12.485 0 0 1-1.648-1.344c-.469-.48-.875-.96-1.216-1.44-.341-.48-.619-.933-.832-1.36a8.073 8.073 0 0 1-.448-1.12c-.075.33-.213.71-.416 1.136-.192.427-.453.88-.784 1.36-.32.47-.709.939-1.168 1.408-.448.47-.976.917-1.584 1.344-.597.427-1.269.8-2.016 1.12a4.415 4.415 0 0 0-.368-.528c-.16-.203-.331-.405-.512-.608a7.24 7.24 0 0 0-.48-.496c.971-.363 1.808-.8 2.512-1.312a9.663 9.663 0 0 0 1.792-1.664 8.768 8.768 0 0 0 1.152-1.792c.299-.619.512-1.21.64-1.776a6.85 6.85 0 0 0 .208-1.6v-5.024h1.04Zm10.528 14.912v-13.2h2.208v13.2h-2.208Zm-1.952 0v-2h3.056v2h-3.056Zm0-11.216v-1.984h3.056v1.984h-3.056ZM149.938 15.581l-.938.937 1.563 1.562L149 19.64l.938.937 2.5-2.498-2.5-2.499ZM154.938 15.581l-.938.937 1.563 1.562L154 19.64l.938.937 2.5-2.498-2.5-2.499ZM159.938 15.581l-.938.937 1.563 1.562L159 19.64l.938.937 2.5-2.498-2.5-2.499ZM171.576 24.575l6.95-7.075c.334-.367.609-.692.825-.975.217-.3.367-.575.45-.825.1-.267.15-.542.15-.825 0-.633-.208-1.133-.625-1.5-.4-.367-.933-.55-1.6-.55-.633 0-1.208.183-1.725.55-.516.35-1.05.942-1.6 1.775l-2.925-2.6c.717-1.167 1.634-2.05 2.75-2.65 1.117-.617 2.4-.925 3.85-.925 1.284 0 2.392.233 3.325.7.934.467 1.65 1.133 2.15 2 .517.85.775 1.858.775 3.025 0 .7-.091 1.35-.275 1.95a6.602 6.602 0 0 1-.875 1.75c-.4.567-.933 1.167-1.6 1.8l-4.6 4.475-5.4-.1Zm0 2.425v-2.425l3.725-1.3h9.4V27h-13.125Zm16.915.22c-.587 0-1.067-.193-1.44-.58-.374-.387-.56-.867-.56-1.44s.186-1.053.56-1.44c.373-.387.853-.58 1.44-.58.573 0 1.046.193 1.42.58.373.387.56.867.56 1.44s-.187 1.053-.56 1.44c-.374.387-.847.58-1.42.58Zm6.789-.22V9.275h4.425V27h-4.425Zm-3.375-14V9.275h7.55V13h-7.55Zm11.716 14 5.775-7.975 1.65.125c-.25.417-.508.775-.775 1.075-.25.283-.567.508-.95.675-.383.167-.892.25-1.525.25-1.117 0-2.133-.258-3.05-.775a6.246 6.246 0 0 1-2.175-2.15c-.55-.9-.825-1.908-.825-3.025 0-1.167.3-2.217.9-3.15.6-.95 1.408-1.7 2.425-2.25s2.15-.825 3.4-.825c1.283 0 2.425.275 3.425.825 1.017.55 1.817 1.292 2.4 2.225.6.933.9 1.983.9 3.15 0 1.45-.5 2.917-1.5 4.4L208.621 27h-5Zm4.85-9.15c.483 0 .908-.108 1.275-.325a2.21 2.21 0 0 0 .85-.9c.217-.383.325-.817.325-1.3 0-.5-.108-.942-.325-1.325a2.21 2.21 0 0 0-.85-.9c-.367-.217-.792-.325-1.275-.325a2.41 2.41 0 0 0-1.25.325 2.39 2.39 0 0 0-.875.9c-.2.383-.3.825-.3 1.325 0 .483.1.917.3 1.3.217.383.508.683.875.9a2.41 2.41 0 0 0 1.25.325Zm8.229 10.686v-13.2h2.224v13.2H216.7Zm1.104 0v-2h3.056v2h-3.056Zm0-11.216v-1.984h3.056v1.984h-3.056Zm7.865-3.152h7.984v1.872h-7.984v-1.872Zm.016 3.824h8.048v1.824h-8.048v-1.824Zm-.096 3.776h8.032v1.872h-8.032v-1.872Zm-1.248-7.6h1.984v5.296c0 .693-.043 1.44-.128 2.24-.075.8-.219 1.61-.432 2.432a9.692 9.692 0 0 1-.944 2.336 7.218 7.218 0 0 1-1.648 1.968 3.669 3.669 0 0 0-.416-.48 6.818 6.818 0 0 0-.56-.528 3.187 3.187 0 0 0-.512-.384 6.29 6.29 0 0 0 1.44-1.696c.362-.63.629-1.28.8-1.952.181-.672.293-1.344.336-2.016.053-.672.08-1.317.08-1.936v-5.28Zm8.416 0h2.048v11.824c0 .576-.08 1.019-.24 1.328-.15.31-.411.544-.784.704-.384.17-.864.272-1.44.304-.576.043-1.28.064-2.112.064a6.122 6.122 0 0 0-.192-.656c-.086-.245-.182-.49-.288-.736a4.926 4.926 0 0 0-.32-.624c.373.021.752.037 1.136.048H232.261c.181 0 .309-.032.384-.096.074-.075.112-.197.112-.368V14.168Zm7.04 14.368v-13.2h2.208v13.2h-2.208Zm-1.952 0v-2h3.056v2h-3.056Zm0-11.216v-1.984h3.056v1.984h-3.056Z"/></svg>